<svg xmlns="http://www.w3.org/2000/svg" width="110" height="110" viewBox="0 0 120 120" fill="none">
<path d="M90.7921 42.1914L84.8011 45.2734C82.6105 46.4003 82.848 49.6058 85.1808 50.3976L105.15 57.1756C105.897 57.4292 106.706 57.0132 106.934 56.2577L113.032 36.0703C113.744 33.712 111.274 31.6549 109.083 32.7818L103.749 35.5261C99.68 28.1508 93.7158 21.9161 86.3829 17.4911C76.2828 11.3962 64.2634 9.14316 52.5296 11.1452C40.7958 13.1473 30.1345 19.2702 22.5015 28.3907C14.8685 37.5112 10.7757 49.0178 10.9739 60.7994C11.1721 72.5811 15.648 83.8478 23.5805 92.5327C31.513 101.218 42.3701 106.738 54.1602 108.082C65.9503 109.426 77.8826 106.502 87.7683 99.8482C95.5997 94.5767 101.731 87.244 105.506 78.7563C107.147 75.0692 104.785 71.0207 100.88 70.001C97.053 69.0014 93.1966 71.3132 91.3891 74.8319C88.6948 80.0772 84.689 84.6096 79.7093 87.9615C72.73 92.6594 64.3058 94.7233 55.982 93.7746C47.6582 92.826 39.993 88.9284 34.3927 82.7968C28.7924 76.6653 25.6324 68.711 25.4925 60.3931C25.3525 52.0753 28.2421 43.9516 33.631 37.5125C39.0198 31.0735 46.5467 26.7507 54.8308 25.3372C63.1148 23.9238 71.6005 25.5145 78.7312 29.8174C83.7507 32.8464 87.8618 37.0764 90.7255 42.077C90.7474 42.1153 90.7696 42.1534 90.7921 42.1914Z" fill="#39c4ab"/>
</svg>